<svg width="75" height="75" viewBox="0 0 75 75" fill="none" xmlns="http://www.w3.org/2000/svg">
<path d="M21.5222 63.8032C22.0131 64.0973 22.3772 64.3967 22.62 64.7096C22.8601 65.0197 22.9868 65.3434 22.9949 65.6779C23.0057 66.0124 22.9005 66.363 22.6793 66.7326C22.504 67.0266 22.3017 67.2397 22.0751 67.3745C21.8459 67.5094 21.6085 67.5876 21.363 67.6119C21.1176 67.6362 20.8802 67.6281 20.6482 67.593L20.7318 71.0834L19.7419 70.49L19.7473 67.3584L18.7574 66.7649L17.3763 69.0739L16.5132 68.5587L19.9226 62.8511L21.5222 63.8059V63.8032ZM21.0259 64.5046L20.3461 64.0973L19.1863 66.0394L19.9065 66.4682C20.3488 66.7326 20.7211 66.8405 21.0232 66.7946C21.3253 66.7488 21.5761 66.5599 21.773 66.2282C21.9106 65.9989 21.9726 65.7885 21.9591 65.597C21.9484 65.4055 21.862 65.2194 21.7056 65.0386C21.5491 64.8579 21.3226 64.6799 21.0232 64.5019L21.0259 64.5046Z" fill="#333333"/>
<path d="M26.963 73.4678L23.4321 72.2217L25.6467 65.953L29.1775 67.1992L28.8916 68.0057L26.3102 67.094L25.6763 68.885L28.0986 69.7401L27.8153 70.5385L25.3931 69.6834L24.6675 71.7388L27.2489 72.6505L26.9603 73.4678H26.963Z" fill="#333333"/>
<path d="M32.4304 74.5846L31.435 74.4362L32.2955 68.7178L30.3237 68.4211L30.4532 67.5634L35.3894 68.3051L35.2599 69.1629L33.2881 68.8662L32.4277 74.5846H32.4304Z" fill="#333333"/>
<path d="M42.4562 72.316C42.4886 72.7746 42.4211 73.1954 42.2566 73.5757C42.0921 73.956 41.8223 74.2689 41.4474 74.509C41.0725 74.7491 40.5869 74.8893 39.9908 74.9298C39.1492 74.9864 38.4938 74.8057 38.0271 74.3876C37.5605 73.9695 37.3015 73.3896 37.2503 72.6532L36.959 68.3806L37.9624 68.3132L38.251 72.5399C38.2888 73.0848 38.4506 73.4867 38.7338 73.7429C39.0198 73.9992 39.4352 74.1098 39.98 74.072C40.3523 74.0477 40.6517 73.9587 40.8755 73.805C41.1021 73.6539 41.2613 73.4516 41.353 73.1981C41.4447 72.9472 41.4798 72.6505 41.4555 72.308L41.1669 68.0893L42.1622 68.0219L42.4562 72.3133V72.316Z" fill="#333333"/>
<path d="M46.2058 67.013C46.7534 66.8485 47.2227 66.7811 47.6138 66.8134C48.0049 66.8458 48.3286 66.9699 48.5822 67.1884C48.8357 67.4068 49.0245 67.7224 49.1486 68.1324C49.2457 68.4588 49.2673 68.7528 49.2134 69.0118C49.1594 69.2707 49.0569 69.5 48.9086 69.6969C48.7602 69.8938 48.5957 70.0637 48.4122 70.2094L51.0449 72.5022L49.9389 72.8339L47.63 70.7165L46.5241 71.0483L47.2982 73.6269L46.3353 73.9156L44.4229 67.5471L46.2058 67.0103V67.013ZM46.3892 67.8519L45.6313 68.0785L46.2813 70.2445L47.0851 70.0044C47.5788 69.856 47.9105 69.6537 48.0805 69.4002C48.2504 69.1466 48.2801 68.8337 48.1695 68.4642C48.094 68.208 47.9807 68.0218 47.8296 67.9005C47.6813 67.7791 47.487 67.717 47.247 67.7116C47.0096 67.7063 46.7237 67.7521 46.3892 67.8519Z" fill="#333333"/>
<path d="M58.6161 68.529L57.5587 69.1386L51.959 66.1661L51.9266 66.185C52.0183 66.3199 52.1181 66.4682 52.226 66.6355C52.3339 66.8027 52.4445 66.978 52.5632 67.1614C52.6792 67.3449 52.7952 67.5364 52.9112 67.736L54.6806 70.8002L53.8903 71.256L50.5645 65.4999L51.6137 64.893L57.1892 67.8439L57.2134 67.8304C57.1433 67.7198 57.0543 67.5822 56.9518 67.4123C56.8466 67.2424 56.7333 67.0643 56.6119 66.8728C56.4905 66.6813 56.3773 66.5006 56.2721 66.3333L54.4837 63.2368L55.2902 62.7701L58.6161 68.529Z" fill="#333333"/>
<path d="M31.3702 7.16956L27.7584 8.1541L26.0078 1.73978L29.6196 0.755249L29.8462 1.58064L27.2054 2.30083L27.7045 4.13234L30.1833 3.4553L30.4072 4.2726L27.9283 4.94964L28.5029 7.05088L31.1436 6.33069L31.3729 7.16687L31.3702 7.16956Z" fill="#333333"/>
<path d="M37.0996 6.55452L36.2445 4.69604L33.682 4.89564L33.1264 6.86202L32.0879 6.94294L34.0812 0.0943484L35.1224 0.0134277L38.1515 6.4736L37.1023 6.55452H37.0996ZM35.082 2.03375C35.0577 1.96631 35.0172 1.86651 34.9606 1.73164C34.9039 1.59678 34.8473 1.45651 34.7933 1.31625C34.7394 1.17329 34.6962 1.0573 34.6639 0.965595C34.6423 1.09237 34.618 1.22994 34.5883 1.37829C34.5587 1.52664 34.5317 1.66421 34.5047 1.78559C34.4777 1.90967 34.4535 2.00947 34.4346 2.085L33.9113 4.00282L35.8993 3.84637L35.0847 2.03375H35.082Z" fill="#333333"/>
<path d="M43.2172 5.25437C43.174 5.64818 43.0392 5.97456 42.818 6.23081C42.5968 6.48706 42.2974 6.67048 41.9225 6.78107C41.5475 6.89166 41.1132 6.92134 40.6196 6.86469C40.3796 6.83772 40.1503 6.79726 39.9291 6.74601C39.7106 6.69476 39.5083 6.63272 39.3222 6.56259C39.1361 6.49246 38.9742 6.41154 38.834 6.31983L38.9392 5.37575C39.1739 5.51332 39.4517 5.64818 39.7754 5.77226C40.099 5.89904 40.4335 5.97996 40.7788 6.02042C41.0755 6.05279 41.3263 6.042 41.5313 5.98266C41.7363 5.92331 41.8982 5.82891 42.0115 5.69943C42.1248 5.56726 42.1949 5.40812 42.2165 5.21661C42.238 5.01161 42.2084 4.83628 42.1221 4.68523C42.0357 4.53418 41.8928 4.38852 41.6932 4.24286C41.4936 4.0999 41.2211 3.93806 40.8786 3.76273C40.6412 3.64405 40.4308 3.51458 40.242 3.37701C40.0532 3.23944 39.894 3.0857 39.7592 2.91576C39.6243 2.74583 39.5299 2.55162 39.4733 2.34122C39.4166 2.12813 39.4031 1.88807 39.4328 1.61564C39.4733 1.25149 39.6 0.949389 39.8104 0.712021C40.0208 0.474654 40.296 0.302023 40.6304 0.199524C40.9676 0.097024 41.3479 0.0673531 41.7741 0.115906C42.1328 0.156366 42.4592 0.229195 42.7559 0.331694C43.0526 0.436891 43.3332 0.566364 43.5975 0.720113L43.1902 1.50774C42.9501 1.37557 42.702 1.25958 42.4511 1.16248C42.2003 1.06538 41.9305 1.00064 41.6473 0.970968C41.4019 0.943994 41.1888 0.957481 41.0161 1.01413C40.8408 1.07077 40.7059 1.15709 40.6061 1.27847C40.509 1.39985 40.4497 1.5455 40.4308 1.71814C40.4092 1.92044 40.4362 2.09577 40.5117 2.24142C40.59 2.38708 40.7248 2.53004 40.9136 2.66491C41.1052 2.80247 41.3587 2.95622 41.677 3.12885C42.0304 3.31227 42.3298 3.50109 42.5752 3.698C42.818 3.8949 42.996 4.11609 43.1066 4.36155C43.2172 4.607 43.2523 4.90371 43.2145 5.24897L43.2172 5.25437Z" fill="#333333"/>
<path d="M47.2763 4.50448L49.7255 1.98784L50.7613 2.29534L47.4759 5.56454L46.7395 8.03801L45.7847 7.75479L46.5103 5.31908L45.5581 0.749756L46.602 1.05995L47.2763 4.50448Z" fill="#333333"/>
<path d="M37.4988 61.6454C50.8629 61.6454 61.6968 50.8116 61.6968 37.4474C61.6968 24.0832 50.8629 13.2494 37.4988 13.2494C24.1346 13.2494 13.3008 24.0832 13.3008 37.4474C13.3008 50.8116 24.1346 61.6454 37.4988 61.6454Z" fill="#F4E0D3"/>
<path d="M50.5837 5.48914L50.2978 6.21203C62.5816 11.2642 71.2563 23.3645 71.2563 37.4501C71.2563 48.3501 66.0639 58.0606 58.0203 64.2349L58.4303 64.9011C66.6923 58.5866 72.0331 48.6307 72.0331 37.4501C72.0331 23.0381 63.1561 10.6573 50.5837 5.49183V5.48914ZM24.503 6.29295C24.4275 6.0394 24.3519 5.79124 24.2791 5.54578C11.7795 10.7436 2.96729 23.0867 2.96729 37.4474C2.96729 48.5497 8.23522 58.4463 16.4001 64.7662L16.8479 64.1324C8.87989 57.9527 3.74412 48.2881 3.74412 37.4474C3.74412 23.4373 12.3217 11.3936 24.5057 6.29295H24.503Z" fill="#333333"/>
<path d="M39.7347 29.5684L32.2252 33.9085L29.687 32.4438L37.1965 28.1038L39.7347 29.5684Z" fill="#D2691E"/>
<path d="M45.0107 32.9617V41.6337L37.4985 45.9737V37.299L45.0107 32.9617Z" fill="#D2691E"/>
<path d="M44.7083 32.4438L37.1962 36.7784L34.8198 35.4055L42.332 31.0681L44.7083 32.4438Z" fill="#D2691E"/>
<path d="M41.7307 30.7229L34.0702 35.1466C34.0702 35.1466 34.0648 35.1493 34.0621 35.152C34.0567 35.1547 34.0513 35.1601 34.0459 35.1628C34.0432 35.1654 34.0351 35.1708 34.0324 35.1735C34.027 35.1762 34.0216 35.1843 34.0162 35.187C34.0135 35.1897 34.0081 35.1978 34.0054 35.2005C34.0001 35.2032 33.9947 35.2086 33.992 35.214C33.9893 35.2194 33.9839 35.2248 33.9785 35.2302C33.9758 35.2356 33.9731 35.241 33.9677 35.2464C33.9677 35.2491 33.965 35.2518 33.9623 35.2545C33.9623 35.2545 33.9623 35.2599 33.9596 35.2626C33.9596 35.2679 33.9542 35.2733 33.9515 35.2787C33.9488 35.2868 33.9461 35.2922 33.9407 35.3003C33.9407 35.3057 33.938 35.3111 33.9353 35.3165C33.9353 35.3219 33.9353 35.3273 33.9326 35.3327C33.9326 35.3381 33.9326 35.3462 33.9299 35.3543C33.9299 35.3597 33.9299 35.3651 33.9299 35.3704C33.9299 35.3785 33.9299 35.3839 33.9299 35.3893C33.9299 35.392 33.9299 35.3974 33.9299 35.4001V37.3287L32.5381 36.5249V34.4237L40.3496 29.9137L41.7442 30.7175L41.7307 30.7229Z" fill="#D2691E"/>
<path d="M36.8998 37.299V45.9737L29.3877 41.6364V32.9644L31.9259 34.429V36.7029C31.9259 36.8108 31.9826 36.9106 32.0743 36.9618L34.0703 38.1136C34.1162 38.1406 34.1701 38.1541 34.2187 38.1541C34.2672 38.1541 34.3239 38.1406 34.3697 38.1136C34.4641 38.0597 34.5181 37.9599 34.5181 37.8547V35.9287L36.8944 37.3017L36.8998 37.299Z" fill="#D2691E"/>
<path d="M53.4023 37.1264C53.4023 45.2157 47.3603 52.1183 39.3518 53.1864C38.9634 53.2377 38.6721 53.5748 38.6721 53.966V55.0422L33.9409 52.3098L38.6721 49.5774V50.3137C38.6721 50.5457 38.7719 50.7642 38.9499 50.9126C39.0929 51.0339 39.2709 51.0987 39.457 51.0987C39.5029 51.0987 39.546 51.096 39.5919 51.0879C42.8449 50.5322 45.8255 48.8329 47.9834 46.3028C50.1655 43.743 51.3685 40.4819 51.3685 37.1237C51.3685 32.522 49.1189 28.1927 45.3534 25.5385C45.1296 25.3821 44.9839 25.1474 44.9353 24.8777C44.8895 24.6079 44.9515 24.3382 45.108 24.1143C45.2968 23.8446 45.6097 23.6827 45.9415 23.6827C46.1519 23.6827 46.3542 23.7475 46.5268 23.8689C50.8345 26.9061 53.405 31.8611 53.405 37.1237L53.4023 37.1264Z" fill="#D2691E"/>
<path d="M35.7264 24.67V23.9363C35.7264 23.7044 35.6266 23.4832 35.4458 23.3348C35.3029 23.2161 35.1248 23.1514 34.9387 23.1514C34.8929 23.1514 34.8497 23.1541 34.8066 23.1622C31.5535 23.7179 28.5703 25.4172 26.4151 27.9473C24.2329 30.5071 23.0326 33.7682 23.0326 37.1264C23.0326 41.7254 25.2795 46.0574 29.045 48.7116C29.2689 48.868 29.4172 49.1027 29.4631 49.3724C29.509 49.6395 29.4496 49.9092 29.2932 50.1331C29.1043 50.4055 28.7915 50.5646 28.4597 50.5646C28.2493 50.5646 28.047 50.4999 27.8744 50.3785C23.5667 47.3413 20.9961 42.3863 20.9961 37.1264C20.9961 29.037 27.0382 22.1318 35.0493 21.0637C35.4377 21.0124 35.7291 20.6779 35.7291 20.2841V19.2106L40.4602 21.9403L35.7291 24.6727L35.7264 24.67Z" fill="#D2691E"/>
</svg>
